# xmcd CD database file
#
# Track frame offsets:
#	150
#	10720
#	23050
#	37337
#	47927
#	61577
#	74087
#	88532
#	102325
#	115165
#	128852
#	142367
#	156212
#	170057
#	182882
#	195145
#	210370
#
# Disc length: 2983 seconds
#
# Revision: 0
# Processed by: cddbd v1.5.2PL0 Copyright (c) Steve Scherf et al.
# Submitted via: CDex 1.70beta2
#
DISCID=f20ba511
DTITLE=Various Artist - Dust My Blues
DYEAR=1900
DGENRE=Blues
TTITLE0=Howlin' Wolf/Little Red Rooster
TTITLE1=Little Walter/Juke
TTITLE2=Jimmy Witherspoon/Crying
TTITLE3=Jimmy Mc Cracklin'/Everybody Rock
TTITLE4=Albert King/Bad Luck Blues
TTITLE5=John Brim/Ice Cream Man
TTITLE6=Buddy Guy/Boken Hearted Blues
TTITLE7=Howlin' Wolf/Three Hundred Pound Of Joy
TTITLE8=Jimmy Rogers/Rock This House
TTITLE9=Lowell Fulson/Loving You
TTITLE10=Memphis Slim/Slim's Blues
TTITLE11=Elmore James/Dust My Broom
TTITLE12=Chuck Berry/Wee Wee Hours
TTITLE13=Sonny Boy Williamson/Keep Your Hands Out Of My Pocket
TTITLE14=Little Walter/Last Night
TTITLE15=Howlin' Wolf/Goin' Down Slow
TTITLE16=Muddy Waters/Rollin' And Tumbin'
EXTD=
EXTT0=
EXTT1=
EXTT2=
EXTT3=
EXTT4=
EXTT5=
EXTT6=
EXTT7=
EXTT8=
EXTT9=
EXTT10=
EXTT11=
EXTT12=
EXTT13=
EXTT14=
EXTT15=
EXTT16=
PLAYORDER=
